<svg width="16" height="14" viewBox="0 0 16 14" fill="none" xmlns="http://www.w3.org/2000/svg">
<path d="M7.24701 9.40638L2.45101 5.13874C1.88501 4.63662 2.34501 3.84802 3.20401 3.84802H12.796C12.9883 3.84789 13.1765 3.89091 13.3381 3.97191C13.4998 4.05291 13.628 4.16847 13.7075 4.30475C13.7869 4.44103 13.8142 4.59225 13.7861 4.7403C13.758 4.88835 13.6757 5.02696 13.549 5.13952L8.75301 9.4056C8.65915 9.48921 8.5434 9.55623 8.41352 9.60215C8.28364 9.64807 8.14265 9.67182 8.00001 9.67182C7.85737 9.67182 7.71638 9.64807 7.5865 9.60215C7.45663 9.55623 7.34087 9.48921 7.24701 9.4056V9.40638Z" fill="black"/>
</svg>
