<svg width="20" height="20" viewBox="0 0 20 20" fill="none" xmlns="http://www.w3.org/2000/svg">
<g clip-path="url(#clip0_13_55)">
<path d="M14.6774 12.9295C15.8878 11.2779 16.4299 9.23016 16.1953 7.19598C15.9607 5.16181 14.9667 3.29122 13.4121 1.95846C11.8575 0.625697 9.85709 -0.0709498 7.81095 0.00789168C5.76481 0.0867331 3.82388 0.935248 2.37649 2.38368C0.929091 3.83211 0.0819647 5.77364 0.00458746 7.81984C-0.0727898 9.86603 0.625288 11.866 1.95916 13.4196C3.29303 14.9732 5.16433 15.9659 7.19868 16.199C9.23302 16.4322 11.2804 15.8886 12.9312 14.677H12.9299C12.9674 14.727 13.0074 14.7745 13.0524 14.8208L17.8649 19.6333C18.0993 19.8678 18.4172 19.9997 18.7488 19.9998C19.0804 19.9999 19.3985 19.8683 19.633 19.6339C19.8676 19.3995 19.9994 19.0816 19.9995 18.75C19.9996 18.4184 19.868 18.1003 19.6337 17.8658L14.8212 13.0533C14.7765 13.0081 14.7284 12.9663 14.6774 12.9283V12.9295ZM14.9999 8.12455C14.9999 9.02738 14.8221 9.92138 14.4766 10.7555C14.1311 11.5896 13.6247 12.3475 12.9863 12.9859C12.3479 13.6243 11.59 14.1307 10.7559 14.4762C9.92174 14.8217 9.02774 14.9995 8.1249 14.9995C7.22206 14.9995 6.32807 14.8217 5.49395 14.4762C4.65984 14.1307 3.90195 13.6243 3.26354 12.9859C2.62514 12.3475 2.11873 11.5896 1.77323 10.7555C1.42773 9.92138 1.2499 9.02738 1.2499 8.12455C1.2499 6.30118 1.97423 4.5525 3.26354 3.26319C4.55286 1.97387 6.30154 1.24955 8.1249 1.24955C9.94826 1.24955 11.6969 1.97387 12.9863 3.26319C14.2756 4.5525 14.9999 6.30118 14.9999 8.12455V8.12455Z" fill="black"/>
</g>
<defs>
<clipPath id="clip0_13_55">
<rect width="20" height="20" fill="white"/>
</clipPath>
</defs>
</svg>
