<svg width="26" height="26" viewBox="0 0 26 26" fill="none" xmlns="http://www.w3.org/2000/svg">
<g clip-path="url(#clip0_45_780)">
<path d="M19.0807 16.8084C20.6542 14.6612 21.359 11.9992 21.054 9.35474C20.749 6.71031 19.4568 4.27854 17.4359 2.54596C15.4149 0.813366 12.8143 -0.0922743 10.1544 0.0102195C7.49437 0.112713 4.97117 1.21578 3.08955 3.09874C1.20794 4.98171 0.106676 7.50569 0.00608577 10.1657C-0.0945047 12.8258 0.812997 15.4258 2.54703 17.4454C4.28107 19.4651 6.71375 20.7556 9.3584 21.0587C12.003 21.3618 14.6646 20.6551 16.8106 19.0801H16.809C16.8577 19.1451 16.9097 19.2069 16.9682 19.267L23.2245 25.5232C23.5292 25.8282 23.9425 25.9995 24.3736 25.9997C24.8047 25.9998 25.2181 25.8288 25.5231 25.5241C25.828 25.2194 25.9994 24.806 25.9995 24.3749C25.9997 23.9439 25.8286 23.5304 25.5239 23.2255L19.2676 16.9692C19.2095 16.9104 19.147 16.8561 19.0807 16.8067V16.8084ZM19.5 10.5619C19.5 11.7356 19.2688 12.8978 18.8197 13.9821C18.3705 15.0664 17.7122 16.0517 16.8823 16.8816C16.0523 17.7116 15.0671 18.3699 13.9827 18.819C12.8984 19.2682 11.7362 19.4994 10.5625 19.4994C9.3888 19.4994 8.22661 19.2682 7.14226 18.819C6.05791 18.3699 5.07265 17.7116 4.24273 16.8816C3.4128 16.0517 2.75447 15.0664 2.30532 13.9821C1.85617 12.8978 1.62499 11.7356 1.62499 10.5619C1.62499 8.1915 2.56662 5.91821 4.24273 4.2421C5.91883 2.566 8.19212 1.62437 10.5625 1.62437C12.9329 1.62437 15.2062 2.566 16.8823 4.2421C18.5584 5.91821 19.5 8.1915 19.5 10.5619V10.5619Z" fill="black"/>
</g>
<defs>
<clipPath id="clip0_45_780">
<rect width="26" height="26" fill="white"/>
</clipPath>
</defs>
</svg>
