<svg width="25" height="22" viewBox="0 0 25 22" fill="none" xmlns="http://www.w3.org/2000/svg">
<path fill-rule="evenodd" clip-rule="evenodd" d="M15.4647 3.04643C15.5958 2.26903 16.2507 1.69112 17.0205 1.69112C17.7904 1.69112 18.4455 2.26931 18.5764 3.04698C18.5165 3.12673 18.4809 3.22588 18.4809 3.33333C18.4809 3.44078 18.5165 3.53993 18.5764 3.61968C18.4455 4.39735 17.7904 4.97554 17.0205 4.97554C16.2507 4.97554 15.5958 4.39763 15.4647 3.62024C15.5249 3.54039 15.5605 3.44103 15.5605 3.33333C15.5605 3.22563 15.5249 3.12627 15.4647 3.04643ZM14.7724 2.85628C14.9864 1.78948 15.9037 0.975544 17.0205 0.975544C18.1372 0.975544 19.0546 1.78948 19.2686 2.85628H23.8017C24.0652 2.85628 24.2788 3.06986 24.2788 3.33333C24.2788 3.5968 24.0652 3.81038 23.8017 3.81038H19.2686C19.0546 4.87718 18.1372 5.69112 17.0205 5.69112C15.9037 5.69112 14.9864 4.87718 14.7724 3.81038H0.552247C0.288779 3.81038 0.0751953 3.5968 0.0751953 3.33333C0.0751953 3.06986 0.288779 2.85628 0.552247 2.85628H14.7724ZM18.5764 19.047C18.5165 19.1267 18.4809 19.2259 18.4809 19.3333C18.4809 19.4408 18.5165 19.5399 18.5764 19.6197C18.4455 20.3973 17.7904 20.9755 17.0205 20.9755C16.2507 20.9755 15.5958 20.3976 15.4647 19.6202C15.5249 19.5404 15.5605 19.441 15.5605 19.3333C15.5605 19.2256 15.5249 19.1263 15.4647 19.0464C15.5958 18.269 16.2507 17.6911 17.0205 17.6911C17.7904 17.6911 18.4455 18.2693 18.5764 19.047ZM19.2686 19.8104H23.8017C24.0652 19.8104 24.2788 19.5968 24.2788 19.3333C24.2788 19.0699 24.0652 18.8563 23.8017 18.8563H19.2686C19.0546 17.7895 18.1373 16.9755 17.0205 16.9755C15.9037 16.9755 14.9864 17.7895 14.7724 18.8563H0.552247C0.288779 18.8563 0.0751953 19.0699 0.0751953 19.3333C0.0751953 19.5968 0.288779 19.8104 0.552247 19.8104H14.7724C14.9864 20.8772 15.9037 21.6911 17.0205 21.6911C18.1372 21.6911 19.0546 20.8772 19.2686 19.8104ZM7.33324 8.97553C8.45 8.97553 9.36735 9.78947 9.58134 10.8563H23.802C24.0655 10.8563 24.279 11.0699 24.279 11.3333C24.279 11.5968 24.0655 11.8104 23.802 11.8104H9.58135C9.36735 12.8772 8.45 13.6911 7.33324 13.6911C6.21649 13.6911 5.29914 12.8772 5.08514 11.8104H0.552247C0.288779 11.8104 0.0751953 11.5968 0.0751953 11.3333C0.0751953 11.0699 0.288779 10.8563 0.552247 10.8563H5.08515C5.29914 9.78947 6.21649 8.97553 7.33324 8.97553ZM8.79369 11.3333C8.79369 11.2259 8.82922 11.1267 8.88916 11.047C8.75822 10.2693 8.10317 9.69111 7.33324 9.69111C6.56341 9.69111 5.90843 10.2692 5.77737 11.0467C5.83744 11.1265 5.87305 11.2257 5.87305 11.3333C5.87305 11.4409 5.83744 11.5402 5.77737 11.6199C5.90842 12.3975 6.56341 12.9755 7.33324 12.9755C8.10318 12.9755 8.75822 12.3973 8.88916 11.6197C8.82922 11.5399 8.79369 11.4408 8.79369 11.3333Z" fill="#261C15"/>
</svg>
