<svg width="31" height="31" viewBox="0 0 31 31" fill="none" xmlns="http://www.w3.org/2000/svg">
<path fill-rule="evenodd" clip-rule="evenodd" d="M15.5001 5.16668C13.3718 5.16668 11.6251 6.91338 11.6251 9.04168V12.9167H23.2501C24.6768 12.9167 25.8334 14.0733 25.8334 15.5V25.8333C25.8334 27.2601 24.6768 28.4167 23.2501 28.4167H7.75008C6.32335 28.4167 5.16675 27.2601 5.16675 25.8333V15.5C5.16675 14.0733 6.32335 12.9167 7.75008 12.9167H9.04175V9.04168C9.04175 5.48664 11.945 2.58334 15.5001 2.58334C19.0551 2.58334 21.9584 5.48664 21.9584 9.04168C21.9584 9.75504 21.3801 10.3333 20.6667 10.3333C19.9534 10.3333 19.3751 9.75504 19.3751 9.04168C19.3751 6.91338 17.6284 5.16668 15.5001 5.16668ZM7.75008 15.5V25.8333H23.2501V15.5H7.75008Z" fill="#999999"/>
</svg>
