<svg width="31" height="31" viewBox="0 0 31 31" fill="none" xmlns="http://www.w3.org/2000/svg">
<path fill-rule="evenodd" clip-rule="evenodd" d="M15.5001 5.16665C13.3718 5.16665 11.6251 6.91335 11.6251 9.04165V12.9166H23.2501C24.6768 12.9166 25.8334 14.0732 25.8334 15.5V25.8333C25.8334 27.26 24.6768 28.4166 23.2501 28.4166H7.75008C6.32335 28.4166 5.16675 27.26 5.16675 25.8333V15.5C5.16675 14.0732 6.32335 12.9166 7.75008 12.9166H9.04175V9.04165C9.04175 5.48661 11.945 2.58331 15.5001 2.58331C19.0551 2.58331 21.9584 5.48661 21.9584 9.04165C21.9584 9.75501 21.3801 10.3333 20.6667 10.3333C19.9534 10.3333 19.3751 9.75501 19.3751 9.04165C19.3751 6.91335 17.6284 5.16665 15.5001 5.16665ZM7.75008 15.5V25.8333H23.2501V15.5H7.75008Z" fill="#999999"/>
</svg>
