<svg width="31" height="27" viewBox="0 0 31 27" fill="none" xmlns="http://www.w3.org/2000/svg">
<path d="M18.0817 27C17.916 26.9999 17.7513 26.9729 17.5941 26.9202L12.4178 25.1892C12.1099 25.0852 11.8425 24.8864 11.6536 24.621C11.4646 24.3556 11.3636 24.037 11.3651 23.7107V15.9735C11.3637 15.9703 11.3617 15.9675 11.3593 15.965L0.46734 3.21534C0.225824 2.93258 0.0701196 2.58611 0.0187117 2.21706C-0.0326962 1.84802 0.0223524 1.4719 0.177322 1.13336C0.332291 0.794818 0.580671 0.508079 0.892974 0.307183C1.20528 0.106288 1.56838 -0.000325417 1.93919 7.46135e-07H29.0608C29.4316 -0.000325417 29.7947 0.106288 30.107 0.307183C30.4193 0.508079 30.6677 0.794818 30.8227 1.13336C30.9776 1.4719 31.0327 1.84802 30.9813 2.21706C30.9299 2.58611 30.7742 2.93258 30.5327 3.21534L19.6375 15.9663C19.6353 15.9689 19.6333 15.9718 19.6317 15.9748V25.4423C19.6323 25.647 19.5926 25.8499 19.5149 26.0391C19.4372 26.2284 19.3231 26.4003 19.179 26.5451C19.035 26.6899 18.8639 26.8046 18.6756 26.8826C18.4872 26.9607 18.2854 27.0006 18.0817 27V27Z" fill="#261C15"/>
</svg>
